<?xml version="1.0" standalone="no"?>
<!DOCTYPE svg PUBLIC "-//W3C//DTD SVG 20010904//EN"
 "http://www.w3.org/TR/2001/REC-SVG-20010904/DTD/svg10.dtd">
<svg version="1.0" xmlns="http://www.w3.org/2000/svg"
 width="595.000000pt" height="356.000000pt" viewBox="0 0 595.000000 356.000000"
 preserveAspectRatio="xMidYMid meet">

<g transform="translate(0.000000,356.000000) scale(0.100000,-0.100000)"
fill="#000000" stroke="none">
<path d="M3420 3494 c-739 -60 -1468 -325 -2156 -782 -416 -277 -802 -603
-1096 -926 -103 -113 -125 -151 -86 -151 9 0 101 79 204 176 422 393 631 564
981 803 446 305 958 542 1448 671 484 128 893 158 1055 77 173 -85 121 -252
-150 -483 -211 -180 -496 -383 -1174 -837 l-441 -295 -149 -8 c-82 -5 -153 -6
-158 -3 -4 3 105 85 245 183 848 596 1043 754 1102 894 30 72 17 116 -45 147
-80 41 -216 35 -369 -16 -178 -59 -612 -267 -819 -391 -289 -174 -513 -369
-581 -506 -45 -90 -52 -158 -21 -222 34 -70 81 -98 249 -144 22 -7 19 -11 -45
-56 -38 -27 -190 -137 -339 -244 -441 -318 -591 -411 -661 -411 -37 0 -66 -26
-45 -40 19 -11 86 -1 144 21 93 37 309 178 805 529 l261 184 150 1 c83 0 151
-2 150 -5 0 -3 -48 -39 -106 -80 -271 -192 -573 -451 -828 -711 -327 -333
-445 -501 -445 -632 0 -135 88 -195 247 -167 158 27 716 279 1118 505 222 125
218 123 445 195 438 138 821 215 1334 267 207 21 766 24 946 5 618 -65 1039
-226 1264 -484 64 -74 65 -42 0 36 -217 263 -645 436 -1241 502 -198 22 -641
29 -858 15 -467 -31 -876 -94 -1225 -190 -79 -22 -146 -39 -147 -37 -2 2 16
16 39 31 498 326 668 583 488 737 -39 34 -138 77 -214 93 l-29 6 34 21 c84 51
407 212 534 266 319 136 507 192 655 197 102 3 131 19 55 31 -212 31 -726
-139 -1225 -405 l-165 -89 -187 -4 -186 -5 56 40 c31 22 179 121 327 220 508
339 954 657 1124 801 161 136 248 262 258 374 12 135 -57 223 -215 272 -62 19
-221 32 -312 24z m-457 -596 c36 -14 35 -44 -5 -99 -94 -130 -245 -249 -977
-771 l-404 -289 -46 7 c-66 9 -161 33 -192 49 -45 24 -79 72 -79 114 0 118
171 305 460 500 207 141 347 215 685 363 314 138 448 168 558 126z m-548
-1207 c-6 -4 -66 -43 -135 -86 -436 -271 -768 -573 -841 -766 -46 -120 -28
-228 43 -265 33 -18 138 -23 190 -10 42 11 -383 -198 -582 -286 -228 -101
-318 -130 -405 -132 -78 -1 -105 18 -105 75 0 118 103 260 425 588 110 111
262 257 337 324 228 200 672 532 726 543 15 3 95 9 177 13 83 4 157 9 165 9 8
1 10 -1 5 -7z m248 -16 c43 -7 107 -27 143 -44 57 -27 67 -36 85 -76 16 -37
18 -51 10 -83 -12 -43 -53 -111 -101 -166 -52 -58 -259 -221 -428 -334 -271
-183 -297 -196 -517 -268 -224 -73 -305 -85 -344 -50 -40 36 -17 143 55 253
82 123 327 342 594 531 148 104 389 252 409 252 9 -1 51 -7 94 -15z"/>
</g>
</svg>
