 <svg version="1.0" xmlns="http://www.w3.org/2000/svg" width="700.000000pt" height="244.000000pt" viewBox="0 0 700.000000 244.000000" preserveAspectRatio="xMidYMid meet">
<metadata>
Created by potrace 1.12, written by Peter Selinger 2001-2015
</metadata>
<g transform="translate(0.000000,244.000000) scale(0.100000,-0.100000)" fill="#000000" stroke="none">
<path d="M1610 2169 c-36 -27 -96 -65 -135 -85 l-70 -37 3 -539 3 -540 -41
-41 c-41 -41 -41 -41 -20 -57 51 -38 60 -67 60 -193 0 -131 -13 -172 -69 -220
l-30 -25 41 -27 c61 -41 126 -103 174 -168 l43 -58 20 39 c29 56 102 142 155
181 l46 34 -23 16 c-68 47 -80 88 -79 271 l1 155 82 3 c95 3 157 -20 179 -66
8 -17 15 -101 19 -232 6 -202 6 -206 34 -253 26 -45 140 -142 157 -135 4 2 77
70 163 153 100 95 153 153 147 159 -6 6 -18 0 -34 -17 -38 -41 -71 -50 -110
-32 -45 22 -66 64 -76 153 -10 88 -25 145 -48 179 -22 35 -88 77 -159 103 -35
12 -63 25 -63 29 0 3 20 14 45 24 93 39 179 141 210 251 27 94 18 186 -28 278
-53 108 -118 160 -180 144 -25 -6 -138 -99 -253 -208 -39 -38 -76 -68 -82 -68
-7 0 -11 138 -12 437 0 240 -2 438 -3 439 -1 0 -31 -21 -67 -47z m351 -817
c36 -57 53 -131 45 -194 -10 -73 -44 -156 -82 -197 l-32 -36 -101 -3 -101 -4
0 175 0 176 92 80 91 80 30 -17 c17 -9 42 -36 58 -60z"></path>
<path d="M4495 1574 c-95 -76 -212 -153 -318 -209 -54 -29 -87 -53 -88 -63 0
-9 0 -81 1 -159 1 -157 -5 -180 -61 -227 l-31 -26 26 -21 c49 -39 56 -66 56
-221 0 -152 -6 -173 -63 -235 -15 -17 -17 -23 -6 -23 21 0 202 -90 308 -153
l94 -56 66 56 c85 73 209 153 330 215 l96 49 5 152 c5 163 13 188 67 218 22
12 21 12 -23 55 l-44 43 0 219 0 220 -169 111 c-92 61 -170 111 -172 111 -2 0
-35 -25 -74 -56z m13 -226 c59 -39 110 -76 114 -82 4 -6 8 -76 8 -155 l0 -144
-44 -43 c-31 -30 -40 -44 -31 -48 8 -3 28 -29 44 -58 l31 -53 0 -177 c0 -222
1 -221 -122 -152 -46 26 -98 57 -115 68 l-33 21 0 133 c0 144 8 174 56 209
l26 19 -41 41 -41 41 0 212 c0 191 2 214 18 226 9 7 18 14 20 14 1 0 51 -32
110 -72z"></path>
<path d="M3510 1530 c-69 -49 -173 -118 -232 -152 l-107 -63 0 -161 -1 -161
-29 -41 c-17 -22 -40 -43 -52 -47 -20 -7 -20 -8 14 -36 55 -46 67 -82 67 -207
0 -119 -10 -163 -46 -202 l-23 -25 165 -120 c90 -66 169 -120 174 -120 10 0
379 277 379 285 1 3 -3 11 -8 18 -6 10 -31 -3 -101 -52 -51 -36 -97 -63 -104
-59 -6 4 -44 33 -83 66 l-73 60 0 147 c0 148 0 148 28 177 15 16 36 35 47 41
l20 12 -20 12 c-11 6 -32 25 -47 41 l-28 29 0 213 c0 132 4 216 10 220 6 3 37
-11 71 -31 50 -31 70 -38 114 -38 48 -1 58 3 91 34 49 47 114 147 114 177 0
30 -5 29 -47 -7 -45 -40 -83 -40 -117 1 -14 17 -29 41 -32 55 -3 13 -9 24 -13
23 -3 0 -62 -40 -131 -89z"></path>
<path d="M5304 1578 c-21 -25 -85 -95 -141 -156 -57 -61 -103 -116 -103 -122
0 -18 18 -11 48 19 40 40 77 49 104 25 40 -36 48 -75 48 -230 0 -128 -2 -151
-20 -178 -10 -18 -30 -38 -44 -45 l-24 -14 29 -24 c50 -42 59 -71 59 -188 0
-124 -10 -155 -68 -207 l-40 -36 41 -28 c56 -37 129 -106 162 -154 15 -22 31
-40 35 -40 4 0 19 18 34 41 38 56 139 153 176 169 l31 13 -31 19 c-51 31 -70
86 -70 211 0 119 17 171 66 204 l26 16 -31 25 c-54 41 -61 67 -61 216 l0 134
78 71 c42 39 80 71 83 71 3 0 29 -27 57 -61 l52 -61 0 -144 c0 -160 -6 -184
-61 -226 l-31 -25 26 -16 c47 -31 66 -86 66 -187 0 -124 -13 -172 -60 -214
l-39 -35 62 -45 c37 -28 82 -74 112 -116 27 -38 52 -70 55 -70 4 0 22 21 41
48 49 69 119 141 163 170 l40 25 -35 17 c-19 10 -45 30 -59 45 -23 25 -25 35
-28 149 -4 136 4 168 56 206 l28 21 -43 43 -43 43 0 150 0 149 65 53 c36 28
72 54 81 58 10 4 35 -14 75 -53 l59 -58 0 -147 c0 -136 -2 -148 -22 -175 -21
-28 -26 -32 -57 -53 -12 -8 -8 -15 18 -36 58 -49 61 -65 61 -278 l0 -195 58
-43 c31 -24 82 -67 113 -96 l56 -54 60 68 c139 159 226 274 214 286 -8 8 -26
-5 -70 -53 l-59 -65 -56 55 -56 54 0 131 c0 136 8 164 54 198 16 12 15 16 -18
51 l-36 37 0 156 c0 177 8 204 71 255 l39 31 -65 39 c-35 21 -102 74 -147 117
l-83 79 -172 -144 c-95 -79 -175 -144 -178 -144 -3 0 -5 22 -5 50 0 46 -2 51
-42 79 -51 35 -99 84 -125 129 l-20 32 -156 -145 c-85 -80 -160 -145 -166
-145 -7 0 -11 23 -11 58 0 52 -3 59 -27 74 -36 22 -101 83 -134 126 l-26 34
-39 -44z"></path>
<path d="M810 1554 c-51 -38 -269 -148 -379 -190 l-74 -28 7 -90 c3 -49 6
-142 6 -206 l0 -118 43 -11 c40 -10 167 -103 167 -122 0 -5 -83 -128 -184
-273 -154 -222 -182 -267 -170 -277 8 -6 16 -10 17 -8 2 2 13 20 27 40 36 55
83 82 149 87 75 5 104 -10 176 -92 l57 -64 77 59 c68 51 263 154 404 212 l37
16 1 223 c1 123 3 233 4 245 2 18 -19 36 -111 97 -63 42 -114 80 -114 85 0 4
48 68 106 142 148 186 209 273 192 277 -8 1 -37 -20 -65 -48 -50 -50 -51 -50
-114 -50 -76 0 -109 17 -165 84 -21 25 -41 46 -44 45 -3 0 -25 -16 -50 -35z
m-99 -186 c39 -73 181 -78 333 -13 32 14 17 -7 -118 -165 -151 -177 -177 -200
-218 -200 -63 0 -68 14 -68 203 0 142 3 173 16 188 18 20 40 15 55 -13z m158
-462 c15 -8 33 -21 39 -29 8 -9 14 -89 18 -225 l7 -211 -25 -12 c-23 -10 -39
-4 -143 47 -137 68 -196 76 -272 36 -24 -12 -43 -19 -43 -16 0 3 53 79 117
167 64 89 128 178 141 197 13 19 33 40 45 47 30 17 82 16 116 -1z"></path>
<path d="M2770 591 c0 -16 -105 -125 -149 -156 -23 -15 -41 -30 -41 -34 0 -3
21 -19 46 -36 26 -17 65 -59 91 -97 26 -38 49 -68 52 -68 3 0 21 23 40 51 19
28 61 74 93 103 l58 53 -45 33 c-48 36 -98 93 -116 134 -12 25 -29 35 -29 17z"></path>
</g>
</svg>